PathFileType	4	(X/Y/Z)	4_coords_data.trc
DataRate	CameraRate	NumFrames	NumMarkers	Units	OrigDataRate	OrigDataStartFrame	OrigNumFrames
30.0	30.0	6	21	m	30.0	10	47
Frame#	Time	THUMB_TIP	THUMB_IP	THUMB_MCP	THUMB_CMC	INDEX_TIP	INDEX_DIP	INDEX_PIP	INDEX_MCP	MIDDLE_TIP	MIDDLE_DIP	MIDDLE_PIP	MIDDLE_MCP	RING_TIP	RING_DIP	RING_PIP	RING_MCP	PINKY_TIP	PINKY_DIP	PINKY_PIP	PINKY_MCP	WRIST
X1	Y1	Z1	X2	Y2	Z2	X3	Y3	Z3	X4	Y4	Z4	X5	Y5	Z5	X6	Y6	Z6	X7	Y7	Z7	X8	Y8	Z8	X9	Y9	Z9	X10	Y10	Z10	X11	Y11	Z11	X12	Y12	Z12	X13	Y13	Z13	X14	Y14	Z14	X15	Y15	Z15	X16	Y16	Z16	X17	Y17	Z17	X18	Y18	Z18	X19	Y19	Z19	X20	Y20	Z20	X21	Y21	Z21
8	0.2999999999999987	0.5424333998966517	-0.02089093046345958	-0.13952885130243103	0.525995191573415	-0.016039644233320494	-0.12422361268831159	0.49598005725083105	-0.0159389208691445	-0.11598337201214491	0.4759355066436499	-0.024736806706999737	-0.07711560650214658	0.5707824286519074	0.044115651071325535	-0.15216182664885472	0.5556719356896384	0.039781494094770276	-0.14316804625683965	0.5350366618960002	0.034922437861632405	-0.12965564894974435	0.501354635529709	0.031239724200332497	-0.10385652466326217	0.5097431296015665	-0.008379866186783769	-0.10976841103154733	0.525717624340747	-0.0071851524601518335	-0.1182175634706557	0.5438042479629636	0.015571874222253923	-0.11611962817028178	0.5152966555364108	0.02959035090489681	-0.08470390907076486	0.5111471787704034	-0.01932299941776372	-0.09947182780416133	0.5279776467785422	-0.01811468920457726	-0.10581811278481937	0.5485152931612713	-0.00415490496612092	-0.10394475108089726	0.5292248842453512	0.015009532632447531	-0.07402276435897046	0.6019047506447627	0.01311026957948902	-0.08253742922538834	0.5859429505319722	0.007250436576983654	-0.08056682161805828	0.565932799106306	0.0017651883084729425	-0.07735467119276548	0.5319046541925193	-0.009114314555474179	-0.07239430606913722	0.4622830810018608	-0.023011742144276925	-0.051989820119430985
9	0.33333333333333187	0.5423492340370523	-0.02081795789279428	-0.13962141885046533	0.5259065665848885	-0.016000090106598863	-0.12431041506063177	0.49590542644687396	-0.01586758342565253	-0.11601981602324493	0.4759626930640861	-0.02468564718926336	-0.07710427752402935	0.5707701638904695	0.04394318577632983	-0.15219997951560574	0.5556575889347038	0.0396598811527753	-0.143185359184821	0.5350224077973403	0.03485783362964967	-0.12965245587422872	0.5013516440862019	0.03127200031209376	-0.10382499830428202	0.5097439364114258	-0.008350872431292178	-0.10977779767677245	0.5257092312722257	-0.0072008238468356245	-0.11825050375341085	0.5438004311779264	0.015548940456051596	-0.11611362281731258	0.5153021193621264	0.029588077433675974	-0.08469870951848377	0.5110978091977091	-0.01935143825664054	-0.09953252217351696	0.5279220408520703	-0.018132859119991962	-0.10589336285129838	0.5484670272675622	-0.004192065214373097	-0.10396002959800008	0.5292168262296142	0.01501429172709623	-0.07403902615500935	0.6018779010578805	0.013004668565420152	-0.08289826160269834	0.5859162100894606	0.0071680620478769	-0.08085903484041021	0.5659101862901836	0.001725374047757522	-0.07755023172204317	0.5318931369527634	-0.009117346419398209	-0.07243562340403423	0.4622830810018609	-0.023011742144276925	-0.051989820119430985
10	0.3666666666666651	0.5422461859343999	-0.020802105721191233	-0.13970890647400155	0.5258059595822977	-0.016004003686876378	-0.12438907702456087	0.49581556426301054	-0.015842877200424987	-0.11606019793741817	0.475921298180741	-0.024690131928100878	-0.0771264816900385	0.5707164959931592	0.04377168279511967	-0.15228064554480406	0.5556046850339087	0.0395385564756815	-0.14324107635730654	0.5349740219575535	0.03479679461252205	-0.12968005617212136	0.501317569007271	0.03129954404775748	-0.10382181749867961	0.5097087146159281	-0.008358024812454179	-0.10979954647318875	0.5256694444372748	-0.0072030093810456775	-0.11828017398081947	0.5437896377619457	0.01552146570644819	-0.11611999438772318	0.5152984449013528	0.029585036795664932	-0.08470955315237833	0.5110339347818637	-0.01946277467135049	-0.09960567548818622	0.5278568653624699	-0.018172274676433897	-0.1059557633964929	0.5484147376113578	-0.00425575978449344	-0.10398485475812091	0.5292142627026968	0.015003286629240331	-0.0740657683998189	0.6018318750364925	0.012896654552386422	-0.08332458092311656	0.5858761937092466	0.007072596884807547	-0.08120406549801612	0.5658803255751794	0.0016604592752542668	-0.07778558000583521	0.5318887308218063	-0.0091750617970634	-0.07248969290226018	0.462283081001861	-0.023011742144276925	-0.051989820119430985
11	0.39999999999999825	0.5421975483351174	-0.020795069231656194	-0.1397992619385447	0.5257526642260887	-0.016035883835260556	-0.12447229416917321	0.49578048628784244	-0.01584065837128057	-0.11607881833038557	0.47589612506603163	-0.024688691798666285	-0.07714021944356877	0.5706497750403442	0.043603519028514226	-0.15238667570930184	0.5555449137432014	0.03941927230395714	-0.14331279866902244	0.5349250038734199	0.03473610305700214	-0.12971511225675125	0.5012919450974129	0.031324418507939655	-0.10381503774127254	0.5096775242380066	-0.008372274138654268	-0.10981532058364085	0.5256312536362	-0.007221816616303944	-0.11830972849581983	0.5437707490868892	0.015484366327979227	-0.11611940639732049	0.5152976147513433	0.02958585152149973	-0.0847095885460995	0.5109495905960286	-0.01959189084899482	-0.0996724608329014	0.5277778889198231	-0.018216904127227762	-0.10599051330501183	0.5483530346338502	-0.004328079515945715	-0.10400458562163545	0.5292111235789076	0.014995118486805348	-0.0740893371000011	0.6017793777650912	0.012807870657666198	-0.08377049124693595	0.5858325643164868	0.006992720947755493	-0.08156070060374451	0.5658499565419907	0.001604742052847219	-0.07802840829439803	0.531889756897156	-0.009222234146763153	-0.07251797478549521	0.4622830810018609	-0.023011742144276925	-0.051989820119430985
12	0.43333333333333146	0.5421189724814549	-0.0208480509351463	-0.13987306588079146	0.5256754615097031	-0.01609553461658486	-0.12454255592307352	0.49571218079694834	-0.01586847638875044	-0.11611817146545132	0.47584521675419034	-0.024700019206183033	-0.07716695080181071	0.5705359264653281	0.043455398495200526	-0.1525426723897923	0.5554447829991058	0.03931795737831567	-0.1434246150371427	0.5348447765148754	0.03468276938030446	-0.1297804002164664	0.5012450066089599	0.03134632669226245	-0.10382737136704423	0.5096350142987053	-0.00834811515738032	-0.10984298816455493	0.5255853310548275	-0.007244963258191683	-0.11835007058255721	0.543735246318979	0.015449799106804107	-0.11612793487551917	0.5152832264433893	0.02959478082824074	-0.0847185417247549	0.5109042714856796	-0.019545698155452595	-0.09964075293294192	0.5277201076671595	-0.018236016292726753	-0.10600568709882979	0.5483167626798444	-0.004380227404098047	-0.10401197308669144	0.5292095847674556	0.014989095381088058	-0.07410434996034468	0.6017294860596548	0.012714263711274265	-0.0841914538528174	0.5857916628728982	0.006907546870329573	-0.08189627813040065	0.5658247906186586	0.0015337442433298598	-0.07825508646984058	0.5318963559934073	-0.009285751226587813	-0.07253815611724052	0.4622830810018609	-0.023011742144276925	-0.051989820119430985
13	0.4666666666666647	0.5420801486024	-0.02088312659167635	-0.1399266809328496	0.5256371802969939	-0.016133319842607463	-0.12459474924914091	0.49568199701194826	-0.015884827275248647	-0.11614222029010852	0.4758616978683671	-0.02468133858159116	-0.07715931210336152	0.5704689311652699	0.043260201518827035	-0.15270435048985206	0.5553963819739093	0.03916162647317112	-0.14353811115907159	0.5348205248002392	0.03458129025291412	-0.12983904350181338	0.5012630170590352	0.03134119291066184	-0.10381921380575734	0.5096073850874949	-0.008362054139538944	-0.10985279651386906	0.5255567509074581	-0.007303539961273642	-0.11836732983492664	0.5437276285678353	0.015372351513264326	-0.1161239616336342	0.5153034765651493	0.0295760548360815	-0.08471583663634091	0.5108464193515216	-0.01954421308804788	-0.099626618123903	0.5276584956294146	-0.018273287562142193	-0.10600931657627524	0.5482832241126672	-0.004459637454779952	-0.10401341459885463	0.5292194737496603	0.01496578365418999	-0.07411446359992915	0.6016769898540513	0.012641325634840661	-0.0845793708642997	0.5857486735055794	0.006836282719292153	-0.08221500730265355	0.5657977695950045	0.0014674155054842375	-0.07848020918340914	0.5319005012253816	-0.00934092353330207	-0.07256088022647406	0.462283081001861	-0.023011742144276925	-0.051989820119430985
